<svg xmlns="http://www.w3.org/2000/svg" xmlns:xlink="http://www.w3.org/1999/xlink" viewBox="0 0 623.62 255.12"><defs><style>.cls-1{fill:#fff;}.cls-2{fill:#1d1d1b;}.cls-3{fill:#2a451d;}.cls-4{fill:#283d19;}.cls-5{fill:url(#linear-gradient);}.cls-6{fill:#357e32;}.cls-7{fill:url(#linear-gradient-2);}.cls-8{fill:url(#linear-gradient-3);}.cls-9{fill:none;}.cls-10{fill:#c24815;}.cls-11{fill:url(#linear-gradient-4);}.cls-12{fill:#bb66a5;}.cls-13{fill:#bf3316;}.cls-14{fill:#a21a17;}.cls-15{fill:#afca0b;}.cls-16{fill:#159a34;}.cls-17{fill:url(#linear-gradient-5);}.cls-18{fill:#13a538;}.cls-19{fill:#dc6413;}.cls-20{fill:#ef7d00;}.cls-21{fill:#c94d1b;}.cls-22{fill:#954b97;}.cls-23{fill:url(#linear-gradient-6);}.cls-24{fill:#931813;}</style><linearGradient id="linear-gradient" x1="500.42" y1="111.27" x2="503.51" y2="100.51" gradientUnits="userSpaceOnUse"><stop offset="0" stop-color="#76b82a"/><stop offset="0.31" stop-color="#73b72a"/><stop offset="0.49" stop-color="#6bb52b"/><stop offset="0.65" stop-color="#5db02d"/><stop offset="0.78" stop-color="#49aa2f"/><stop offset="0.91" stop-color="#2fa231"/><stop offset="1" stop-color="#159a34"/></linearGradient><linearGradient id="linear-gradient-2" x1="524.7" y1="107.3" x2="524.7" y2="59.82" gradientUnits="userSpaceOnUse"><stop offset="0" stop-color="#2f461f"/><stop offset="0.6" stop-color="#2d431d"/><stop offset="0.91" stop-color="#283d19"/></linearGradient><linearGradient id="linear-gradient-3" x1="520.83" y1="122.83" x2="524.24" y2="106.75" gradientUnits="userSpaceOnUse"><stop offset="0" stop-color="#38612a"/><stop offset="0.59" stop-color="#375f29"/><stop offset="0.8" stop-color="#355826"/><stop offset="0.95" stop-color="#314d22"/><stop offset="1" stop-color="#2f461f"/></linearGradient><linearGradient id="linear-gradient-4" x1="554.47" y1="113.21" x2="557.73" y2="101.05" gradientUnits="userSpaceOnUse"><stop offset="0" stop-color="#dc6413"/><stop offset="0.53" stop-color="#da6213"/><stop offset="0.72" stop-color="#d45b14"/><stop offset="0.85" stop-color="#c95014"/><stop offset="0.91" stop-color="#c24815"/></linearGradient><linearGradient id="linear-gradient-5" x1="528.46" y1="88.37" x2="528.46" y2="63.09" gradientUnits="userSpaceOnUse"><stop offset="0" stop-color="#38612a"/><stop offset="0.42" stop-color="#375e29"/><stop offset="0.68" stop-color="#345626"/><stop offset="0.89" stop-color="#304820"/><stop offset="0.91" stop-color="#2f461f"/></linearGradient><linearGradient id="linear-gradient-6" x1="570.13" y1="110.15" x2="571.77" y2="104.44" gradientUnits="userSpaceOnUse"><stop offset="0" stop-color="#a91b18"/><stop offset="0.46" stop-color="#a71b18"/><stop offset="0.62" stop-color="#a01a16"/><stop offset="0.74" stop-color="#951813"/><stop offset="0.75" stop-color="#931813"/></linearGradient></defs><title>kirey</title><g id="BG"><rect class="cls-1" width="623.62" height="255.12"/></g><g id="Logo"><path class="cls-2" d="M31.61,179.7l16.62-19a2.63,2.63,0,0,1,1.94-1h10.4a.9.9,0,0,1,1,1v8a.9.9,0,0,1-1,1H53.94a1.49,1.49,0,0,0-1.12.61l-6.93,7.86,11.83,20.09a1.41,1.41,0,0,0,1,.61h4.89a.9.9,0,0,1,1,1v8a.9.9,0,0,1-1,1H52.31a1.84,1.84,0,0,1-1.63-1L38.34,186.63l-6.73,7.65v4a.54.54,0,0,0,.61.61h4.39a.9.9,0,0,1,1,1v8a.9.9,0,0,1-1,1H15.19a.9.9,0,0,1-1-1v-8a.9.9,0,0,1,1-1h4.39a.54.54,0,0,0,.61-.61V150.12a.54.54,0,0,0-.61-.61H15.19a.9.9,0,0,1-1-1v-8a.9.9,0,0,1,1-1h15.4a.9.9,0,0,1,1,1Z"/><path class="cls-2" d="M87,198.26a.55.55,0,0,0,.62.61H92a.9.9,0,0,1,1,1v8a.9.9,0,0,1-1,1H70.56a.9.9,0,0,1-1-1v-8a.9.9,0,0,1,1-1H75a.54.54,0,0,0,.61-.61V170.31a.54.54,0,0,0-.61-.61H70.56a.9.9,0,0,1-1-1v-8a.9.9,0,0,1,1-1H86a.9.9,0,0,1,1,1Zm0-48.85a.9.9,0,0,1-1,1H76.58a.9.9,0,0,1-1-1v-8.87a.9.9,0,0,1,1-1H86a.9.9,0,0,1,1,1Z"/><path class="cls-2" d="M135.42,160.52v8.87a1.09,1.09,0,0,1-.3.87,1.15,1.15,0,0,1-.92.16,39.11,39.11,0,0,0-6-.82q-5.5,0-8.26,3.06t-2.75,9.59v16a.54.54,0,0,0,.61.61h4.79a.9.9,0,0,1,1,1v8a.9.9,0,0,1-1,1H100.75a.9.9,0,0,1-1-1v-8a.9.9,0,0,1,1-1h4.38a.55.55,0,0,0,.62-.61V170.31a.55.55,0,0,0-.62-.61h-4.38a.9.9,0,0,1-1-1v-8a.9.9,0,0,1,1-1h15.4a.9.9,0,0,1,1,1v5.1h.1a14.26,14.26,0,0,1,4.84-4.9,14,14,0,0,1,7.5-1.94,21.52,21.52,0,0,1,4.79.51Q135.42,159.71,135.42,160.52Z"/><path class="cls-2" d="M181.62,172.15a29.17,29.17,0,0,1,1.27,5.91,83.62,83.62,0,0,1,.36,8.88c0,.68-.38,1-1.12,1H151.84a.54.54,0,0,0-.61.61,10.77,10.77,0,0,0,.71,3.77,10.61,10.61,0,0,0,4.08,5.51,12.07,12.07,0,0,0,6.93,1.94q7.25,0,11.53-4.69.81-.82,1.53-.21l6,5.3a.94.94,0,0,1,.11,1.43,22.6,22.6,0,0,1-8.47,6.12A29.39,29.39,0,0,1,161.93,210a22.81,22.81,0,0,1-13.1-3.62,18.47,18.47,0,0,1-7.39-10,39.21,39.21,0,0,1-1.74-12,39.9,39.9,0,0,1,1.64-12.13,18.26,18.26,0,0,1,7.39-10,22.41,22.41,0,0,1,12.69-3.56,22.16,22.16,0,0,1,12.85,3.62A18.54,18.54,0,0,1,181.62,172.15Zm-29.78,2.45a13.09,13.09,0,0,0-.61,4.18.54.54,0,0,0,.61.61h19.27a.54.54,0,0,0,.61-.61,13.09,13.09,0,0,0-.61-4.18,8.82,8.82,0,0,0-3.57-4.64,10.59,10.59,0,0,0-6-1.69,10.8,10.8,0,0,0-6.12,1.69A8.82,8.82,0,0,0,151.84,174.6Z"/><path class="cls-2" d="M237.3,168.68a.9.9,0,0,1-1,1h-2.65a.81.81,0,0,0-.82.61L216.6,211.92a50.7,50.7,0,0,1-4.54,9.18,13.56,13.56,0,0,1-5,4.69,15.33,15.33,0,0,1-7,1.43h-3.17a.9.9,0,0,1-1-1V218a.9.9,0,0,1,1-1h1.84a7,7,0,0,0,4.54-1.38,10,10,0,0,0,2.8-4.43l1.43-4.18-15.3-36.82a.71.71,0,0,0-.71-.51h-2.75a.9.9,0,0,1-1-1v-8a.9.9,0,0,1,1-1h19.07a.9.9,0,0,1,1,1v8a.9.9,0,0,1-1,1h-3.27q-.7,0-.51.72l8.77,23.14H213l8.67-23.14a.52.52,0,0,0-.52-.72h-3.26a.9.9,0,0,1-1-1v-8a.9.9,0,0,1,1-1h18.36a.9.9,0,0,1,1,1Z"/><path class="cls-2" d="M297.36,164.4v-3.67a.9.9,0,0,1,1-1h15.4a.9.9,0,0,1,1,1v8a.9.9,0,0,1-1,1h-4.39a.54.54,0,0,0-.61.61V205.8q0,10.71-5.86,16.63t-17.08,5.91a26.9,26.9,0,0,1-10.15-2A18.69,18.69,0,0,1,268,221a1,1,0,0,1-.31-.72,1.13,1.13,0,0,1,.41-.71l6-6a2.11,2.11,0,0,1,.81-.4,1.1,1.1,0,0,1,.72.4,15.11,15.11,0,0,0,10.71,4.59q11,0,11-11.72v-4.59h-.1q-3.67,5.7-12.75,5.71a17.57,17.57,0,0,1-10.5-3.06,17.14,17.14,0,0,1-6.22-8.88,28.5,28.5,0,0,1-1.28-5.61,56.5,56.5,0,0,1-.36-6.93,54,54,0,0,1,.36-6.83,31,31,0,0,1,1.28-5.61,17.11,17.11,0,0,1,6.22-9,17.57,17.57,0,0,1,10.5-3.06q9.08,0,12.75,5.81Zm-19.68,18.66a23.88,23.88,0,0,0,1.12,8.06q2,6.31,8.67,6.32t8.77-6.32a23.88,23.88,0,0,0,1.12-8.06,25,25,0,0,0-1.12-8.06q-2-6.21-8.77-6.22T278.8,175A25,25,0,0,0,277.68,183.06Z"/><path class="cls-2" d="M357.63,160.52v8.87a1.06,1.06,0,0,1-.31.87,1.14,1.14,0,0,1-.92.16,39.19,39.19,0,0,0-6-.82c-3.67,0-6.43,1-8.26,3.06s-2.76,5.23-2.76,9.59v16a.55.55,0,0,0,.62.61h4.79a.9.9,0,0,1,1,1v8a.9.9,0,0,1-1,1H323a.9.9,0,0,1-1-1v-8a.9.9,0,0,1,1-1h4.39a.54.54,0,0,0,.61-.61V170.31a.54.54,0,0,0-.61-.61H323a.9.9,0,0,1-1-1v-8a.9.9,0,0,1,1-1h15.4a.9.9,0,0,1,1,1v5.1h.11a14.17,14.17,0,0,1,4.84-4.9,13.89,13.89,0,0,1,7.49-1.94,21.67,21.67,0,0,1,4.8.51Q357.63,159.71,357.63,160.52Z"/><path class="cls-2" d="M404,172.15a37,37,0,0,1,1.22,5.4,55.52,55.52,0,0,1,0,13.47,37,37,0,0,1-1.22,5.4,18.33,18.33,0,0,1-7.4,10,25,25,0,0,1-25.7,0,18.31,18.31,0,0,1-7.39-10,37,37,0,0,1-1.22-5.4,55.52,55.52,0,0,1,0-13.47,37,37,0,0,1,1.22-5.4,18.31,18.31,0,0,1,7.39-10,25,25,0,0,1,25.7,0A18.33,18.33,0,0,1,404,172.15Zm-29.48,3.06a19.77,19.77,0,0,0-.81,3.87,50.83,50.83,0,0,0-.21,5.2,52.42,52.42,0,0,0,.21,5.26,17.89,17.89,0,0,0,.81,3.82,9.26,9.26,0,0,0,9.28,6.43,9.58,9.58,0,0,0,5.72-1.69,9.81,9.81,0,0,0,3.46-4.74,17.91,17.91,0,0,0,.82-3.82c.13-1.33.2-3.08.2-5.26s-.07-3.9-.2-5.2a19.8,19.8,0,0,0-.82-3.87,9.23,9.23,0,0,0-3.36-4.74,9.68,9.68,0,0,0-5.82-1.69,9.89,9.89,0,0,0-5.86,1.69A9.1,9.1,0,0,0,374.55,175.21Z"/><path class="cls-2" d="M459.3,198.26a.54.54,0,0,0,.61.61h4.39a.9.9,0,0,1,1,1v8a.9.9,0,0,1-1,1H448.9a.9.9,0,0,1-1-1v-3.57h-.11Q443.29,210,435.13,210q-7.75,0-12.29-5.1t-4.54-13.15V170.31a.54.54,0,0,0-.61-.61H413.3a.9.9,0,0,1-1-1v-8a.9.9,0,0,1,1-1h15.4a.9.9,0,0,1,1,1v28.35a12.25,12.25,0,0,0,2.3,7.8,9.24,9.24,0,0,0,13.46,0,11.71,11.71,0,0,0,2.4-7.7V170.31a.55.55,0,0,0-.62-.61h-4.48a.9.9,0,0,1-1-1v-8a.9.9,0,0,1,1-1h15.5a.9.9,0,0,1,1,1Z"/><path class="cls-2" d="M520.08,170.42a36.76,36.76,0,0,1,1.32,6,76.41,76.41,0,0,1,0,15.81,36.76,36.76,0,0,1-1.32,6,16.73,16.73,0,0,1-6.33,8.83A18.5,18.5,0,0,1,503,210q-9,0-13.05-5.81h-.1v12.44a.54.54,0,0,0,.61.61h4.39a.9.9,0,0,1,1,1v8a.9.9,0,0,1-1,1H473.47a.9.9,0,0,1-1-1v-8a.9.9,0,0,1,1-1h4.39a.54.54,0,0,0,.61-.61v-46.3a.54.54,0,0,0-.61-.61h-4.39a.9.9,0,0,1-1-1v-8a.9.9,0,0,1,1-1h15.4a.9.9,0,0,1,1,1v3.67h.1q4.08-5.82,13.05-5.81a18.5,18.5,0,0,1,10.71,3A16.73,16.73,0,0,1,520.08,170.42Zm-29.17,4.69a31.46,31.46,0,0,0-1,9.17,31.54,31.54,0,0,0,1,9.18,8.93,8.93,0,0,0,3.36,4.69,10,10,0,0,0,5.82,1.64,9.68,9.68,0,0,0,5.76-1.64,9,9,0,0,0,3.31-4.69,31.54,31.54,0,0,0,1-9.18,31.46,31.46,0,0,0-1-9.17,9,9,0,0,0-3.31-4.69,9.68,9.68,0,0,0-5.76-1.64,10,10,0,0,0-5.82,1.64A8.93,8.93,0,0,0,490.91,175.11Z"/><path class="cls-3" d="M542.42,56.14,530.56,58v4.41l7.51,2.09a2.07,2.07,0,0,1,1.23-.59l4.9-.61A54.2,54.2,0,0,0,542.42,56.14Z"/><path class="cls-4" d="M530.56,58l-9.88,1.39a2.28,2.28,0,0,0-1,.41l10.92,2.61Z"/><path class="cls-5" d="M510.55,102.82a2.31,2.31,0,0,1-1.12.41l-25.71,4.14v5.23a1.93,1.93,0,0,0,2.11,1.93l33-5.37v-4.33Z"/><path class="cls-6" d="M537.47,66.63v38.31a67.89,67.89,0,0,0,7.63-30.46,60.86,60.86,0,0,0-.91-11.16l-4.9.61a2,2,0,0,0-1.2.56,1.78,1.78,0,0,0-.28.38A4.15,4.15,0,0,0,537.47,66.63Z"/><path class="cls-7" d="M519.2,60.35a2.53,2.53,0,0,0-.18.44,4.87,4.87,0,0,0-.17,1.32v42.72l11.08,2.47a1.82,1.82,0,0,0,.62-1.55V62.43l-10.92-2.61A1.76,1.76,0,0,0,519.2,60.35Z"/><path class="cls-8" d="M528.3,107.84a2.72,2.72,0,0,0,1.63-.54l-11.08-2.47v4.33l9.45-1.32Z"/><path class="cls-9" d="M563.74,74.51c-.8-1.74-2.42-1.43-3,0L546,108.78c-.66,1.53.25,2.68,1.92,2.42l28.26-4.48a1.72,1.72,0,0,0,1.12-.67,2.16,2.16,0,0,0,.08-2.21Z"/><path class="cls-9" d="M560.69,74.55,546,108.78c-.66,1.53.25,2.68,1.92,2.42l16.65-2.64,7.19-16.78-8-17.27C562.94,72.77,561.32,73.08,560.69,74.55Z"/><path class="cls-10" d="M563.74,74.49c-.8-1.73-2.42-1.42-3,0l-6.45,15,4.54,9.75a2.12,2.12,0,0,1-.08,2.2l8.06,2,5-11.69Z"/><path class="cls-11" d="M558.7,101.52a1.7,1.7,0,0,1-1.13.67l-9.38,1.49L546,108.76c-.66,1.54.23,2.71,1.9,2.45l16.67-2.65,2.18-5.09Z"/><path class="cls-12" d="M578.74,120.29a1.45,1.45,0,0,1-1.14-1.55l-3.18.5Z"/><path class="cls-13" d="M585.15,80.25l-6.42-1.56a1.68,1.68,0,0,0-1.85,1.19l-5.11,11.9,5.62,12.06a2.16,2.16,0,0,1-.08,2.21,1.72,1.72,0,0,1-1.12.67l-11.61,1.84-2.38,5.55c-.51,1.18-.09,2.14.9,2.39l11.32,2.74,3.18-.5a2.64,2.64,0,0,1,.21-.85l7.34-17.12Z"/><path class="cls-14" d="M577.81,117.89a2.64,2.64,0,0,0-.21.85h0l5.79-.92a2.33,2.33,0,0,0,1.1-.43,1.93,1.93,0,0,0,.65-1.54V100.77Z"/><path class="cls-15" d="M483.73,112.64V56.45c0-1.76.6-2.51,1.83-2.71L512,49.65,528.64,47a1.7,1.7,0,0,1,2,1.87L530.56,58l11.86-1.88C536.86,39,523.31,28.41,507.28,31,486.1,34.47,468.73,59.51,468.48,87s16.71,46.91,37.88,43.46a37.4,37.4,0,0,0,18.46-9.11l-4.41-1.07a2,2,0,0,1-1.56-1.92v-9.16l-33,5.36A1.91,1.91,0,0,1,483.73,112.64Z"/><path class="cls-16" d="M530.56,58l.05-9.14a1.69,1.69,0,0,0-2-1.87l-17.43,2.75V101a2.13,2.13,0,0,1-.67,1.82l8.3,2V62.11a4.87,4.87,0,0,1,.17-1.32,2.53,2.53,0,0,1,.18-.44,1.76,1.76,0,0,1,.44-.53,2.28,2.28,0,0,1,1-.41Z"/><path class="cls-17" d="M537.48,66.67a4.15,4.15,0,0,1,.31-1.73,1.54,1.54,0,0,1,.28-.42l-7.51-2.09V105.8a1.83,1.83,0,0,1-.62,1.5l-.38.23a6,6,0,0,1-.76.23l-9.94,1.4v9.19a2,2,0,0,0,1.51,1.88l4.46,1.08a56.21,56.21,0,0,0,12.66-16.37Z"/><path class="cls-18" d="M468.48,87c.25-27.45,17.62-52.49,38.8-55.94a28.38,28.38,0,0,1,11.21.35l.2,0c-9.73-2.32-19.05-6-29.05-4.1-36.6,7-50.7,69.75-22.9,92.82,7.48,6.21,18.19,7.68,27.59,9.74C479.12,125.81,468.27,109,468.48,87Z"/><path class="cls-19" d="M538.77,124.69a2,2,0,0,1-1.3-1.82V104.94a56.21,56.21,0,0,1-12.66,16.37l14.11,3.42h0Z"/><path class="cls-20" d="M583.85,57.15a1.85,1.85,0,0,0-.62,0l-39,6.19a62.12,62.12,0,0,1,.91,11.2,67.94,67.94,0,0,1-7.63,30.42v17.93a2,2,0,0,0,1.3,1.82,1.82,1.82,0,0,0,.85.06l34.8-5.51L563.1,116.5c-1-.25-1.41-1.21-.9-2.39l2.38-5.55-16.65,2.64c-1.67.26-2.58-.89-1.92-2.42l8.24-19.2h0l6.45-15c.63-1.46,2.25-1.77,3,0l8,17.29,5.11-11.9a1.68,1.68,0,0,1,1.85-1.19l6.42,1.56L585.2,59A1.73,1.73,0,0,0,583.85,57.15Z"/><path class="cls-21" d="M583.23,57.13h.13a1.62,1.62,0,0,1,.49,0l.1,0c-1.87-.54-18.69-4.53-18.69-4.53a1.83,1.83,0,0,0-.66,0l-22.18,3.52a54.2,54.2,0,0,1,1.78,7.18Z"/><path class="cls-22" d="M609.18,113,595.54,83.62c-.8-1.73-2.42-1.42-3,0l-7.34,17.1,0,15.09a1.94,1.94,0,0,1-.65,1.53,2.43,2.43,0,0,1-1.14.41l-5.75.94h0a1.44,1.44,0,0,0,1.11,1.54,2.3,2.3,0,0,0,1,0L608,115.84a1.73,1.73,0,0,0,1.12-.68A2.12,2.12,0,0,0,609.18,113Z"/><path class="cls-12" d="M592.49,83.67a1.69,1.69,0,0,1,1.86-1.19h0l-9.2-2.23v20.52Z"/><path class="cls-23" d="M566.76,103.47l-2.18,5.09,11.61-1.84a1.72,1.72,0,0,0,1.12-.67h0Z"/><path class="cls-24" d="M577.39,103.84l-5.62-12.06-5,11.69L577.32,106A2.17,2.17,0,0,0,577.39,103.84Z"/></g></svg>