<svg xmlns="http://www.w3.org/2000/svg" viewBox="0 0 623.62 255.12"><defs><style>.cls-1{fill:#fff;}.cls-2{fill:#fd7127;}.cls-3{fill:#fa3445;}.cls-4{fill:#4eb6c6;}.cls-5{fill:#3c9f5a;}.cls-6{fill:#4e237d;}.cls-7{fill:#4c4847;}</style></defs><title>mia-platform</title><g id="BG"><rect class="cls-1" width="623.62" height="255.12"/></g><g id="Logo"><g id="Logo-2" data-name="Logo"><path class="cls-2" d="M37,67.57l13.54,7.81V91L37,98.82,23.44,91V75.38Zm0-10.51L14.28,70.18V96.42L37,109.54l22.7-13.12V70.18Z"/><path class="cls-3" d="M62.08,111.11l13.54,7.81v15.62l-13.54,7.81-13.54-7.81V118.92Zm0-10.52L39.37,113.71V140l22.71,13.12L84.78,140V113.71Z"/><path class="cls-4" d="M87.28,154.74l13.54,7.81v15.62L87.28,186l-13.54-7.81V162.55Zm0-10.62-22.7,13.12v26.24l22.7,13.13L110,183.48V157.24Z"/><path class="cls-5" d="M36.87,154.74l13.54,7.81v15.62L36.87,186l-13.53-7.81V162.55Zm0-10.62-22.7,13.12v26.24l22.7,13.13,22.71-13.13V157.24Z"/><path class="cls-6" d="M112.27,111.11l13.54,7.81v15.62l-13.54,7.81-13.54-7.81V118.92Zm0-10.52-22.7,13.12V140l22.7,13.12L135,140V113.71Z"/><path class="cls-7" d="M162.37,68.62h5.31v3.74a20.08,20.08,0,0,1-.11,2.09h.11a11.2,11.2,0,0,1,9.79-6.56c4.79,0,7.6,2.18,8.64,6.45h.1a11.48,11.48,0,0,1,10.21-6.45c6.46,0,9.48,3.64,9.48,10.93V97.15h-5.52V80.07c0-4.06-.84-7.18-5.11-7.18-4.06,0-7,3.43-8,7.29a15,15,0,0,0-.42,3.95v13h-5.42V80.07c0-3.75-.52-7.18-5-7.18-4.16,0-7.08,3.43-8.22,7.49a14.55,14.55,0,0,0-.31,3.75v13h-5.52Z"/><path class="cls-7" d="M212.87,57.26h5.52v5.63h-5.52Zm0,11.36h5.52V97.25h-5.52Z"/><path class="cls-7" d="M240.78,79.34H242v-.52c0-4.69-2.7-6.25-6.24-6.25a14.76,14.76,0,0,0-8,2.81l-2.29-4.06a18,18,0,0,1,10.72-3.43c7.19,0,11.35,4,11.35,11.14V97.15h-5.1V94.44c0-1.25.11-2.29.11-2.29h-.11a9.85,9.85,0,0,1-9.16,5.63c-4.9,0-9.69-3-9.69-8.75,0-9.27,12.39-9.69,17.18-9.69m-6.35,14.17c4.69,0,7.6-4.9,7.6-9.06v-.94h-1.45c-4.17,0-11.56.31-11.56,5.41.1,2.29,1.87,4.59,5.41,4.59"/><path class="cls-7" d="M162.57,111.31h31.14c15.62,0,26.87,10.52,26.87,26.66s-11.25,27.08-26.87,27.08H174.55v31.56h-12Zm29.16,43.33c10.31,0,16.56-6.36,16.56-16.67s-6.25-16.35-16.45-16.35H174.45v33Z"/><path class="cls-7" d="M230.37,111.31h11.77v66.55c0,7.39,2.91,8.75,6.56,8.75,1,0,2.08-.11,2.08-.11v10.42a36.63,36.63,0,0,1-3.85.21c-6.67,0-16.46-1.77-16.46-17.19V111.31Z"/><path class="cls-7" d="M292.54,158.39h2.71v-1c0-10-5.73-13.43-13.43-13.43-9.38,0-17.08,5.94-17.08,5.94L260,141.31a38.29,38.29,0,0,1,22.8-7.29c15.52,0,24.17,8.43,24.17,23.95v38.64H296.08v-5.84c0-2.81.21-4.79.21-4.79h-.21a21.21,21.21,0,0,1-19.57,12.08c-10.52,0-20.83-6.35-20.83-18.64,0-20.2,26.55-21,36.86-21M279,188.59c9.89,0,16.35-10.42,16.35-19.48v-2h-3c-8.86,0-24.79.63-24.79,11.56,0,5.11,3.85,9.9,11.46,9.9"/><path class="cls-7" d="M324.2,145.68h-8v-9.37h8.34v-17.6h11.35v17.6h14.79v9.37H335.87v27.18c0,12.19,8.54,13.75,13,13.75a17.33,17.33,0,0,0,2.82-.21v10.41a36.09,36.09,0,0,1-4.07.21c-7.81,0-23.43-2.39-23.43-22.8Z"/><path class="cls-7" d="M365.76,145.68h-7.61v-9.37h7.61v-2.92c0-20.2,15.2-22.7,22.91-22.7a28.82,28.82,0,0,1,4.48.31v10a20.22,20.22,0,0,0-3-.21c-4.47,0-12.8,1.46-12.8,12.81v2.71h14.47v9.37H377.32V196.5H365.76Z"/><path class="cls-7" d="M429.18,134c18.22,0,33,13.43,33,31.86,0,18.65-14.79,32.18-33,32.18s-33-13.53-33-32.18c.1-18.43,14.78-31.86,33-31.86m0,53.84c11.56,0,21-9.17,21-22s-9.38-21.76-21-21.76c-11.46,0-21,9.06-21,21.76s9.58,22,21,22"/><path class="cls-7" d="M473.65,135.47H485V146.1c0,2.5-.21,4.58-.21,4.58H485c2.81-9,9.89-15.93,19.37-15.93a25.24,25.24,0,0,1,3,.2v11.56a19.22,19.22,0,0,0-3.33-.31c-7.5,0-14.37,5.31-17.19,14.37a39.24,39.24,0,0,0-1.45,11v25H473.65Z"/><path class="cls-7" d="M516.55,135.47h11.36v8.13c0,2.39-.21,4.48-.21,4.48h.21c2.91-7.09,11.45-14.06,21-14.06,10.31,0,16.35,4.68,18.33,13.85h.21A24.51,24.51,0,0,1,589.25,134c13.74,0,20.2,7.81,20.2,23.43v39.16H597.68V160c0-8.54-1.67-15.31-10.83-15.31-8.54,0-15,7.29-17.18,15.62a34.83,34.83,0,0,0-.84,8.44v27.91H557.07V160c0-8-1.25-15.31-10.63-15.31-9,0-15.2,7.39-17.49,16a32.53,32.53,0,0,0-.73,8v27.91H516.45V135.47Z"/><path class="cls-2" d="M37,67.57l13.54,7.81V91L37,98.82,23.44,91V75.38Zm0-10.51L14.28,70.18V96.42L37,109.54l22.7-13.12V70.18Z"/></g></g></svg>