<svg xmlns="http://www.w3.org/2000/svg" viewBox="0 0 623.62 255.12"><defs><style>.cls-1{fill:#fff;}.cls-2{fill:#d1d0c5;}.cls-3{fill:#2c5169;}.cls-4{fill:#3b6c8b;}</style></defs><title>sighup</title><g id="BG"><rect class="cls-1" width="623.62" height="255.12"/></g><g id="Logo"><path class="cls-2" d="M137.84,111.66l83.35-42.87A6.61,6.61,0,0,0,221.1,57L137.74,15.8a6.61,6.61,0,0,0-5.94,0L48.44,58.71a6.61,6.61,0,0,0,.1,11.8l83.35,41.2a6.6,6.6,0,0,0,6,0Z"/><path class="cls-3" d="M223,83.14l-84.38,43.14a6.61,6.61,0,0,1-3.46.67l.11,26.48a6.71,6.71,0,0,0,3.44-.6l90.23-43.78a6.61,6.61,0,0,0,3.73-6L232.56,89A6.61,6.61,0,0,0,223,83.14Zm.22,42.79-83.89,41.88a6.53,6.53,0,0,1-4,.58l.1,25.26a6.62,6.62,0,0,0,5.59-.12L200.71,164a6.61,6.61,0,0,1,9.53,5.69l0,1.19a6.58,6.58,0,0,1-3.78,6.21l-67.79,32a6.5,6.5,0,0,1-3.27.58l.12,30.36a6.53,6.53,0,0,0,3.68-.62l90.07-45.15a6.61,6.61,0,0,0,3.64-5.94l-.22-56.44a6.61,6.61,0,0,0-9.56-5.88Z"/><path class="cls-4" d="M41.26,149.59l94.14,43.82.11,0V168.19a6.5,6.5,0,0,1-1.81-.54l-66-32a6.61,6.61,0,0,1,5.76-11.9l59.73,28.89a6.63,6.63,0,0,0,2.29.59V126.75a6.43,6.43,0,0,1-2.49-.65L47.77,83.19A6.61,6.61,0,0,0,38.19,89l-.75,54.51a6.6,6.6,0,0,0,3.82,6.08Zm94.25,59.82a6.51,6.51,0,0,1-2.36-.59L46.48,167.68a6.61,6.61,0,0,0-9.44,6v14.4A6.61,6.61,0,0,0,40.75,194l92.61,45.19a6.5,6.5,0,0,0,2.15.59Z"/><path class="cls-3" d="M282.65,146.58a3.44,3.44,0,0,1-1.09-2.08,2.68,2.68,0,0,1,.64-2.24l3.63-4.39a3,3,0,0,1,2.09-1.09,2.89,2.89,0,0,1,2.23.72c1.11.9,2.14,1.69,3.1,2.34a16.83,16.83,0,0,0,2.95,1.63,14.79,14.79,0,0,0,3.18.95,21,21,0,0,0,3.71.3,11.77,11.77,0,0,0,6.47-1.55A4.78,4.78,0,0,0,312,137c0-1.67-1-2.95-2.88-3.87a38.29,38.29,0,0,0-9.23-2.42q-8.64-1.52-13-5.75a14.2,14.2,0,0,1-4.39-10.67,13.74,13.74,0,0,1,1.66-6.74,16.64,16.64,0,0,1,4.51-5.22,21.28,21.28,0,0,1,6.58-3.41A25.26,25.26,0,0,1,303,97.68a28.06,28.06,0,0,1,10.29,1.89,35.41,35.41,0,0,1,9.54,5.75,3.16,3.16,0,0,1,1.14,2.05,3,3,0,0,1-.69,2.27L319.67,114a3,3,0,0,1-2.08,1.1,3,3,0,0,1-2.23-.72,26.61,26.61,0,0,0-5.91-3.71,15.66,15.66,0,0,0-6.51-1.36,9.89,9.89,0,0,0-5.53,1.32,4.07,4.07,0,0,0-2,3.52,3.55,3.55,0,0,0,2,3,19.57,19.57,0,0,0,6.59,2q10.14,1.81,15.48,6a13.79,13.79,0,0,1,5.33,11.46,15.86,15.86,0,0,1-1.62,7.19,16.92,16.92,0,0,1-4.54,5.61,21.54,21.54,0,0,1-6.93,3.63,28.86,28.86,0,0,1-8.86,1.29,30.15,30.15,0,0,1-11.58-2A27.24,27.24,0,0,1,282.65,146.58Zm65.48,3.78a3,3,0,0,1-.91,2.2,3,3,0,0,1-2.19.91h-6.66a2.86,2.86,0,0,1-2.16-.91,3.07,3.07,0,0,1-.87-2.2V101.69a3.07,3.07,0,0,1,.87-2.2,2.88,2.88,0,0,1,2.16-.9H345a3.09,3.09,0,0,1,3.1,3.1Zm59.95-3.55A29.71,29.71,0,0,1,398,152.64a34.31,34.31,0,0,1-10.75,1.74,30.32,30.32,0,0,1-11.62-2.16,26.6,26.6,0,0,1-14.95-14.91,29.32,29.32,0,0,1-2.12-11.24,31.8,31.8,0,0,1,2-11.51,26,26,0,0,1,5.68-9,25.68,25.68,0,0,1,8.82-5.83,30.41,30.41,0,0,1,11.51-2.08,28.54,28.54,0,0,1,11.35,2.12,25.3,25.3,0,0,1,8.78,6.36,3.39,3.39,0,0,1,1,2.15,2.73,2.73,0,0,1-.72,2.16l-3.49,3.86a2.92,2.92,0,0,1-2.16,1,2.88,2.88,0,0,1-2.15-.79,23.57,23.57,0,0,0-6-3.82,16.24,16.24,0,0,0-6.66-1.4,14.9,14.9,0,0,0-5.87,1.17,13.93,13.93,0,0,0-4.81,3.37,16.45,16.45,0,0,0-3.25,5.26,19.68,19.68,0,0,0,0,13.59A15.62,15.62,0,0,0,376,138a15.41,15.41,0,0,0,11.2,4.69,17.09,17.09,0,0,0,5-.76,18.1,18.1,0,0,0,4.66-2.12v-5.52H385.6a3,3,0,0,1-2.19-.91,3,3,0,0,1-.91-2.2v-5.45a3.11,3.11,0,0,1,3.1-3.1h20.82a3.12,3.12,0,0,1,3.11,3.1v17.41a6.29,6.29,0,0,1-.31,2.12A3.51,3.51,0,0,1,408.08,146.81Zm60,3.55a3.09,3.09,0,0,1-3.1,3.11h-6.59a3.11,3.11,0,0,1-3.1-3.11V131.14H433.14v19.22a3,3,0,0,1-.91,2.2,3,3,0,0,1-2.19.91h-6.66a2.86,2.86,0,0,1-2.16-.91,3.07,3.07,0,0,1-.87-2.2V101.69a3.07,3.07,0,0,1,.87-2.2,2.88,2.88,0,0,1,2.16-.9H430a3.09,3.09,0,0,1,3.1,3.1v17.79h22.18V101.69a3.09,3.09,0,0,1,3.1-3.1H465a3.07,3.07,0,0,1,3.1,3.1ZM481.7,99.49a2.88,2.88,0,0,1,2.16-.9h6.66a3.11,3.11,0,0,1,3.11,3.1v27a19.16,19.16,0,0,0,.79,5.68,12.87,12.87,0,0,0,2.31,4.43,10.29,10.29,0,0,0,3.71,2.88,11.71,11.71,0,0,0,5,1,10.38,10.38,0,0,0,8.67-3.9,15.9,15.9,0,0,0,3.07-10.11v-27a3.09,3.09,0,0,1,3.1-3.1h6.66a3,3,0,0,1,3,3v27.86a27.5,27.5,0,0,1-1.82,10.22,23.06,23.06,0,0,1-5,7.87,22.28,22.28,0,0,1-7.72,5,27,27,0,0,1-10,1.78,27.46,27.46,0,0,1-10.06-1.78,21.76,21.76,0,0,1-7.76-5.08,22.93,22.93,0,0,1-5-7.87,27.78,27.78,0,0,1-1.78-10.18V101.69A3.07,3.07,0,0,1,481.7,99.49ZM566.14,124a7.84,7.84,0,0,0,5.49-1.82,6.38,6.38,0,0,0,2-5,6.63,6.63,0,0,0-2-5.07,7.7,7.7,0,0,0-5.49-1.9h-10.6V124Zm-1.21-25.43a28.16,28.16,0,0,1,8.9,1.32,20.12,20.12,0,0,1,6.81,3.75,16.46,16.46,0,0,1,4.39,5.87,18.52,18.52,0,0,1,1.55,7.68,18.27,18.27,0,0,1-1.55,7.64,16.17,16.17,0,0,1-4.39,5.79,20.67,20.67,0,0,1-6.85,3.72,28.26,28.26,0,0,1-8.86,1.32h-9.46v14.68a3.11,3.11,0,0,1-3.1,3.11H545.7a2.85,2.85,0,0,1-2.15-.91,3.07,3.07,0,0,1-.87-2.2V101.69a3.07,3.07,0,0,1,.87-2.2,2.88,2.88,0,0,1,2.15-.9Z"/></g></svg>