<?xml version="1.0" encoding="utf-8"?>
<!-- Generator: Adobe Illustrator 16.0.3, SVG Export Plug-In . SVG Version: 6.00 Build 0)  -->
<!DOCTYPE svg PUBLIC "-//W3C//DTD SVG 1.1//EN" "http://www.w3.org/Graphics/SVG/1.1/DTD/svg11.dtd">
<svg version="1.1" xmlns="http://www.w3.org/2000/svg" xmlns:xlink="http://www.w3.org/1999/xlink" x="0px" y="0px" width="623.6px"
	 height="255.1px" viewBox="0 0 623.6 255.1" style="enable-background:new 0 0 623.6 255.1;" xml:space="preserve">
<style type="text/css">
<![CDATA[
	.st0{clip-path:url(#SVGID_34_);fill:#DF0000;}
	.st1{clip-path:url(#SVGID_24_);fill:#DF0000;}
	.st2{clip-path:url(#SVGID_46_);fill:#DF0000;}
	.st3{clip-path:url(#SVGID_2_);fill:#DF0000;}
	.st4{clip-path:url(#SVGID_14_);fill:#0D0B0B;}
	.st5{clip-path:url(#SVGID_36_);fill:#DF0000;}
	.st6{clip-path:url(#SVGID_26_);fill:#DF0000;}
	.st7{clip-path:url(#SVGID_4_);fill:#DF0000;}
	.st8{clip-path:url(#SVGID_16_);fill:#0D0B0B;}
	.st9{clip-path:url(#SVGID_38_);fill:#DF0000;}
	.st10{clip-path:url(#SVGID_28_);fill:#DF0000;}
	.st11{clip-path:url(#SVGID_6_);fill:#DF0000;}
	.st12{clip-path:url(#SVGID_18_);fill:#0D0B0B;}
	.st13{clip-path:url(#SVGID_8_);fill:#DF0000;}
	.st14{fill:#FFFFFF;}
	.st15{clip-path:url(#SVGID_40_);fill:#DF0000;}
	.st16{clip-path:url(#SVGID_30_);fill:#DF0000;}
	.st17{clip-path:url(#SVGID_20_);fill:#0D0B0B;}
	.st18{clip-path:url(#SVGID_42_);fill:#DF0000;}
	.st19{clip-path:url(#SVGID_10_);fill:#DF0000;}
	.st20{clip-path:url(#SVGID_32_);fill:#DF0000;}
	.st21{clip-path:url(#SVGID_22_);fill:#0D0B0B;}
	.st22{clip-path:url(#SVGID_44_);fill:#DF0000;}
	.st23{clip-path:url(#SVGID_12_);fill:#0D0B0B;}
]]>
</style>
<g id="BG">
	<rect class="st14" width="623.6" height="255.1"/>
</g>
<g id="Logo">
	<g>
		<g>
			<defs>
				<rect id="SVGID_1_" x="51.7" y="7.1" width="520.2" height="240.9"/>
			</defs>
			<clipPath id="SVGID_2_">
				<use xlink:href="#SVGID_1_"  style="overflow:visible;"/>
			</clipPath>
			<path class="st3" d="M103.2,205.1c-0.8-0.9-1.6-1.7-2.6-2.3s-2-1.2-3.2-1.5c-2.3-0.9-5.3-1.7-9.1-2.5c-1.9-0.4-3.6-0.8-4.8-1.2
				c-1.3-0.4-2.3-0.9-3.1-1.4c-0.8-0.5-1.3-1.1-1.6-1.7c-0.3-0.7-0.5-1.4-0.5-2.3c0-2,0.9-3.6,2.6-4.8c1.7-1.2,4.2-1.8,7.4-1.8
				c6.6,0,10.1,2.6,10.7,7.8h5.6c-0.1-2.1-0.5-3.9-1.4-5.5c-0.8-1.6-2-3-3.4-4.1c-1.4-1.1-3.1-1.9-5.1-2.5c-2-0.6-4.2-0.9-6.6-0.9
				c-2.3,0-4.4,0.3-6.3,0.9c-1.9,0.6-3.5,1.4-4.8,2.5c-1.3,1.1-2.4,2.3-3.1,3.8c-0.7,1.5-1.1,3.1-1.1,4.8c0,3.1,1.1,5.6,3.2,7.4
				c1.1,0.9,2.5,1.8,4.2,2.5c1.8,0.7,3.9,1.4,6.4,1.9c2.5,0.5,4.6,1,6.3,1.5c1.7,0.5,3.1,1,4.2,1.7c1.1,0.6,1.8,1.3,2.3,2.2
				c0.5,0.8,0.7,1.8,0.7,3c0,1.1-0.3,2.2-0.8,3c-0.5,0.9-1.2,1.7-2.2,2.3c-0.9,0.6-2,1.1-3.4,1.5c-1.3,0.3-2.8,0.5-4.3,0.5
				c-1.7,0-3.2-0.2-4.7-0.6c-1.5-0.4-2.8-0.9-3.9-1.7c-1.1-0.8-2.1-1.7-2.8-2.9c-0.7-1.2-1.1-2.6-1.3-4.2h-5.5
				c0.1,2.1,0.5,4.1,1.3,5.9c0.8,1.8,1.9,3.3,3.4,4.6c1.5,1.3,3.4,2.3,5.7,3c2.3,0.7,4.9,1.1,8,1.1c2.4,0,4.5-0.3,6.5-1
				c2-0.7,3.6-1.6,5.1-2.7c1.4-1.2,2.5-2.5,3.3-4.1c0.8-1.6,1.2-3.3,1.2-5.1c0-1.5-0.2-2.8-0.7-3.9C104.6,207,104,206,103.2,205.1"
				/>
		</g>
		<g>
			<defs>
				<rect id="SVGID_3_" x="51.7" y="7.1" width="520.2" height="240.9"/>
			</defs>
			<clipPath id="SVGID_4_">
				<use xlink:href="#SVGID_3_"  style="overflow:visible;"/>
			</clipPath>
			<path class="st7" d="M152,186.4c-0.7-1-1.5-1.9-2.5-2.7c-1-0.8-2-1.3-3.2-1.6c-1.2-0.3-2.5-0.6-4-0.8c-1.5-0.2-3.1-0.2-4.8-0.2
				h-16.1v43.2h5.7V207h10.9c5.3,0,9.3-1.1,12-3.4c2.7-2.2,4.1-5.6,4.1-9.9c0-1.3-0.2-2.6-0.6-3.9
				C153.2,188.6,152.6,187.4,152,186.4 M147.6,197.3c-0.4,1-0.9,1.8-1.8,2.5c-0.8,0.7-1.9,1.2-3.2,1.5c-1.3,0.3-2.9,0.5-4.7,0.5h-11
				v-15.7h10.8c2.5,0,4.4,0.2,5.7,0.5c0.7,0.2,1.3,0.5,1.8,0.9c0.6,0.4,1.1,1,1.5,1.6c0.4,0.6,0.7,1.4,0.9,2.1
				c0.2,0.8,0.3,1.6,0.3,2.5C148.1,195.2,148,196.3,147.6,197.3"/>
		</g>
		<g>
			<defs>
				<rect id="SVGID_5_" x="51.7" y="7.1" width="520.2" height="240.9"/>
			</defs>
			<clipPath id="SVGID_6_">
				<use xlink:href="#SVGID_5_"  style="overflow:visible;"/>
			</clipPath>
			<polygon class="st11" points="176.7,181.1 159.9,224.3 166,224.3 179.6,187.3 193.2,224.3 199.4,224.3 182.6,181.1 			"/>
		</g>
		<g>
			<defs>
				<rect id="SVGID_7_" x="51.7" y="7.1" width="520.2" height="240.9"/>
			</defs>
			<clipPath id="SVGID_8_">
				<use xlink:href="#SVGID_7_"  style="overflow:visible;"/>
			</clipPath>
			<path class="st13" d="M237.1,204.7c1.5-0.4,2.8-0.9,4-1.6c1.2-0.7,2.2-1.5,3-2.5c0.8-1,1.5-2.1,1.9-3.4c0.5-1.3,0.7-2.6,0.7-4.1
				c0-1.3-0.2-2.5-0.5-3.7c-0.4-1.2-0.8-2.3-1.5-3.3c-0.6-1-1.4-1.8-2.3-2.6c-0.9-0.7-1.8-1.2-2.9-1.6c-1.1-0.3-2.3-0.6-3.6-0.7
				c-1.4-0.2-2.9-0.2-4.6-0.2h-19.1v43.2h5.7v-18.5h10.6c1.1,0,2.1,0.2,3.1,0.5c1,0.3,1.9,0.8,2.7,1.4c0.8,0.6,1.5,1.4,2.2,2.2
				c0.6,0.9,1.1,1.8,1.5,2.8l4,11.5h6.2l-4.3-11.7C242.4,208.4,240.1,205.8,237.1,204.7 M235.4,200.3c-1.3,0.3-2.8,0.4-4.6,0.4H218
				v-14.8h13.6c6.2,0,9.3,2.5,9.3,7.4c0,1.4-0.2,2.5-0.6,3.5c-0.4,1-1,1.7-1.8,2.3C237.7,199.6,236.7,200,235.4,200.3"/>
		</g>
		<g>
			<defs>
				<rect id="SVGID_9_" x="51.7" y="7.1" width="520.2" height="240.9"/>
			</defs>
			<clipPath id="SVGID_10_">
				<use xlink:href="#SVGID_9_"  style="overflow:visible;"/>
			</clipPath>
			<polygon class="st19" points="298.1,181.1 290.4,181.1 269.3,202.6 269.3,181.1 263.6,181.1 263.6,224.3 269.3,224.3 
				269.3,209.3 276,202.8 291.4,224.3 298.9,224.3 280,198.9 			"/>
		</g>
		<g>
			<defs>
				<rect id="SVGID_11_" x="51.7" y="7.1" width="520.2" height="240.9"/>
			</defs>
			<clipPath id="SVGID_12_">
				<use xlink:href="#SVGID_11_"  style="overflow:visible;"/>
			</clipPath>
			<polygon class="st23" points="555.4,181.1 547.7,181.1 526.7,202.6 526.7,181.1 521,181.1 521,224.3 526.7,224.3 526.7,209.3 
				533.4,202.8 548.7,224.3 556.2,224.3 537.4,198.9 			"/>
		</g>
		<g>
			<defs>
				<rect id="SVGID_13_" x="51.7" y="7.1" width="520.2" height="240.9"/>
			</defs>
			<clipPath id="SVGID_14_">
				<use xlink:href="#SVGID_13_"  style="overflow:visible;"/>
			</clipPath>
			<polygon class="st4" points="311.6,224.3 317.3,224.3 317.3,204.7 337.6,204.7 337.6,199.6 317.3,199.6 317.3,186.2 340.7,186.2 
				340.7,181.1 311.6,181.1 			"/>
		</g>
		<g>
			<defs>
				<rect id="SVGID_15_" x="51.7" y="7.1" width="520.2" height="240.9"/>
			</defs>
			<clipPath id="SVGID_16_">
				<use xlink:href="#SVGID_15_"  style="overflow:visible;"/>
			</clipPath>
			<polygon class="st8" points="363.6,181.1 346.8,224.3 352.9,224.3 366.5,187.3 380.1,224.3 386.3,224.3 369.5,181.1 			"/>
		</g>
		<g>
			<defs>
				<rect id="SVGID_17_" x="51.7" y="7.1" width="520.2" height="240.9"/>
			</defs>
			<clipPath id="SVGID_18_">
				<use xlink:href="#SVGID_17_"  style="overflow:visible;"/>
			</clipPath>
			<path class="st12" d="M429.4,205.3c-0.7-0.9-1.6-1.7-2.6-2.4c-1-0.7-2.3-1.2-3.6-1.5c4.2-2,6.2-5.1,6.2-9.2c0-1.7-0.3-3.2-1-4.6
				c-0.7-1.4-1.7-2.5-2.9-3.5c-1.3-0.9-2.8-1.7-4.7-2.2c-1.8-0.5-3.9-0.8-6.2-0.8h-15.4v43.2h16.2c5.3,0,9.3-1.1,12-3.2
				c2.7-2.2,4.1-5.3,4.1-9.3c0-1.2-0.2-2.4-0.5-3.5C430.6,207.2,430.1,206.2,429.4,205.3 M404.9,186.2h9.1c1.8,0,3.3,0.1,4.6,0.4
				c1.2,0.3,2.2,0.7,3,1.2c0.8,0.5,1.3,1.2,1.7,2c0.3,0.8,0.5,1.7,0.5,2.8c0,2.3-0.8,4-2.2,5c-1.5,1-3.8,1.5-7,1.5h-9.6V186.2z
				 M415.3,219.2h-10.4v-14.8h9.7c2.1,0,3.9,0.2,5.3,0.5c1.4,0.3,2.5,0.8,3.4,1.4c0.9,0.6,1.5,1.4,1.8,2.3c0.4,0.9,0.5,2,0.5,3.3
				C425.6,216.7,422.1,219.2,415.3,219.2"/>
		</g>
		<g>
			<defs>
				<rect id="SVGID_19_" x="51.7" y="7.1" width="520.2" height="240.9"/>
			</defs>
			<clipPath id="SVGID_20_">
				<use xlink:href="#SVGID_19_"  style="overflow:visible;"/>
			</clipPath>
			<path class="st17" d="M472,204.7c1.5-0.4,2.8-0.9,4-1.6c1.2-0.7,2.2-1.5,3-2.5c0.8-1,1.5-2.1,1.9-3.4c0.5-1.3,0.7-2.6,0.7-4.1
				c0-1.3-0.2-2.5-0.5-3.7c-0.4-1.2-0.8-2.3-1.5-3.3c-0.6-1-1.4-1.8-2.3-2.6c-0.9-0.7-1.9-1.2-2.9-1.6c-1-0.3-2.3-0.6-3.6-0.7
				c-1.4-0.2-2.9-0.2-4.5-0.2h-19.1v43.2h5.7v-18.5h10.6c1.1,0,2.1,0.2,3.1,0.5c1,0.3,1.9,0.8,2.7,1.4c0.8,0.6,1.5,1.4,2.2,2.2
				c0.6,0.9,1.1,1.8,1.5,2.8l4,11.5h6.2l-4.3-11.7C477.3,208.4,475,205.8,472,204.7 M470.2,200.3c-1.3,0.3-2.8,0.4-4.6,0.4h-12.8
				v-14.8h13.6c6.2,0,9.3,2.5,9.3,7.4c0,1.4-0.2,2.5-0.6,3.5c-0.4,1-1,1.7-1.8,2.3C472.6,199.6,471.5,200,470.2,200.3"/>
		</g>
		<g>
			<defs>
				<rect id="SVGID_21_" x="51.7" y="7.1" width="520.2" height="240.9"/>
			</defs>
			<clipPath id="SVGID_22_">
				<use xlink:href="#SVGID_21_"  style="overflow:visible;"/>
			</clipPath>
			<rect x="499.2" y="181.1" class="st21" width="5.7" height="43.2"/>
		</g>
		<g>
			<defs>
				<rect id="SVGID_23_" x="51.7" y="7.1" width="520.2" height="240.9"/>
			</defs>
			<clipPath id="SVGID_24_">
				<use xlink:href="#SVGID_23_"  style="overflow:visible;"/>
			</clipPath>
			<path class="st1" d="M241,122.6c10.6,10.2,24.1,15.5,37.8,15.7c-1.4-14.2-2.7-28.6-4.2-43.5C264.8,102.6,251,114.5,241,122.6"/>
		</g>
		<g>
			<defs>
				<rect id="SVGID_25_" x="51.7" y="7.1" width="520.2" height="240.9"/>
			</defs>
			<clipPath id="SVGID_26_">
				<use xlink:href="#SVGID_25_"  style="overflow:visible;"/>
			</clipPath>
			<path class="st6" d="M281,138.3c13.8-0.3,27.5-5.6,38-16c-9.9-7.9-24-20-34-27.9C283.7,109.5,282.3,123.9,281,138.3"/>
		</g>
		<g>
			<defs>
				<rect id="SVGID_27_" x="51.7" y="7.1" width="520.2" height="240.9"/>
			</defs>
			<clipPath id="SVGID_28_">
				<use xlink:href="#SVGID_27_"  style="overflow:visible;"/>
			</clipPath>
			<path class="st10" d="M239.5,43.8C229.3,54.4,224.2,68,224,81.7c14.2-1.3,28.5-2.6,43.3-3.9C259.4,67.8,247.4,53.7,239.5,43.8"/>
		</g>
		<g>
			<defs>
				<rect id="SVGID_29_" x="51.7" y="7.1" width="520.2" height="240.9"/>
			</defs>
			<clipPath id="SVGID_30_">
				<use xlink:href="#SVGID_29_"  style="overflow:visible;"/>
			</clipPath>
			<path class="st16" d="M224,84c0.4,13.5,5.6,26.8,15.6,37.2c7.9-9.8,19.7-23.5,27.3-33C252.1,86.8,238,85.4,224,84"/>
		</g>
		<g>
			<defs>
				<rect id="SVGID_31_" x="51.7" y="7.1" width="520.2" height="240.9"/>
			</defs>
			<clipPath id="SVGID_32_">
				<use xlink:href="#SVGID_31_"  style="overflow:visible;"/>
			</clipPath>
			<path class="st20" d="M320.2,121.1c10.2-10.6,15.3-24.2,15.5-37.9c-14.2,1.3-28.5,2.6-43.3,3.9
				C300.3,97.1,312.4,111.2,320.2,121.1"/>
		</g>
		<g>
			<defs>
				<rect id="SVGID_33_" x="51.7" y="7.1" width="520.2" height="240.9"/>
			</defs>
			<clipPath id="SVGID_34_">
				<use xlink:href="#SVGID_33_"  style="overflow:visible;"/>
			</clipPath>
			<path class="st0" d="M278.7,26.6c-13.8,0.3-27.5,5.6-38,16c9.9,7.9,24,20,34,27.9C276,55.4,277.4,40.9,278.7,26.6"/>
		</g>
		<g>
			<defs>
				<rect id="SVGID_35_" x="51.7" y="7.1" width="520.2" height="240.9"/>
			</defs>
			<clipPath id="SVGID_36_">
				<use xlink:href="#SVGID_35_"  style="overflow:visible;"/>
			</clipPath>
			<path class="st5" d="M348.8,137.5c13.8-0.3,27.5-5.6,38-16c-9.9-7.9-24-20-34-27.9C351.4,108.7,350.1,123.2,348.8,137.5"/>
		</g>
		<g>
			<defs>
				<rect id="SVGID_37_" x="51.7" y="7.1" width="520.2" height="240.9"/>
			</defs>
			<clipPath id="SVGID_38_">
				<use xlink:href="#SVGID_37_"  style="overflow:visible;"/>
			</clipPath>
			<path class="st9" d="M307.3,43.1c-10.2,10.6-15.3,24.2-15.5,37.9c14.2-1.3,28.5-2.6,43.3-3.9C327.2,67,315.1,52.9,307.3,43.1"/>
		</g>
		<g>
			<defs>
				<rect id="SVGID_39_" x="51.7" y="7.1" width="520.2" height="240.9"/>
			</defs>
			<clipPath id="SVGID_40_">
				<use xlink:href="#SVGID_39_"  style="overflow:visible;"/>
			</clipPath>
			<path class="st15" d="M360.2,86.3c7.9,10.1,19.9,24.1,27.8,34c10.2-10.6,15.3-24.2,15.5-37.9C389.3,83.7,375,85,360.2,86.3"/>
		</g>
		<g>
			<defs>
				<rect id="SVGID_41_" x="51.7" y="7.1" width="520.2" height="240.9"/>
			</defs>
			<clipPath id="SVGID_42_">
				<use xlink:href="#SVGID_41_"  style="overflow:visible;"/>
			</clipPath>
			<path class="st18" d="M342.4,69.8c1.4-15.1,2.7-29.6,4.1-43.9c-13.8,0.3-27.5,5.6-38,16C318.3,49.8,332.4,61.9,342.4,69.8"/>
		</g>
		<g>
			<defs>
				<rect id="SVGID_43_" x="51.7" y="7.1" width="520.2" height="240.9"/>
			</defs>
			<clipPath id="SVGID_44_">
				<use xlink:href="#SVGID_43_"  style="overflow:visible;"/>
			</clipPath>
			<path class="st22" d="M386.5,41.5c-10.6-10.2-24.2-15.5-37.8-15.7c1.4,14.3,2.7,28.6,4.2,43.5C362.6,61.6,376.5,49.6,386.5,41.5"
				/>
		</g>
		<g>
			<defs>
				<rect id="SVGID_45_" x="51.7" y="7.1" width="520.2" height="240.9"/>
			</defs>
			<clipPath id="SVGID_46_">
				<use xlink:href="#SVGID_45_"  style="overflow:visible;"/>
			</clipPath>
			<path class="st2" d="M403.5,80.1c-0.4-13.5-5.6-26.8-15.6-37.2c-7.9,9.8-19.7,23.5-27.3,33C375.4,77.3,389.5,78.7,403.5,80.1"/>
		</g>
	</g>
</g>
</svg>
