<svg xmlns="http://www.w3.org/2000/svg" viewBox="0 0 623.62 255.12"><defs><style>.cls-1{fill:#fff;}.cls-2{fill:#092c40;}.cls-3{fill:#4cb75d;}</style></defs><title>suse</title><g id="BG"><rect class="cls-1" width="623.62" height="255.12"/></g><g id="Logo"><path class="cls-2" d="M438.72,209.64c0,15.23-12.42,28.9-30.41,28.9H351.62V217.32h56.81a7.75,7.75,0,0,0,7.71-7.68c0-4.91-3.05-7.89-9.1-8.83-.32-.06-34.72-5.05-35-5.09-18.33-2.83-26.32-16.63-26.32-30,0-15.24,12.41-28.91,30.41-28.91h56.69v21.22H376a7.74,7.74,0,0,0-7.71,7.69c0,4.91,3.06,7.87,9.09,8.83l35,5.09C430.72,182.5,438.72,196.31,438.72,209.64ZM317.24,136.81V197.3a22.88,22.88,0,1,1-45.75,0V136.81h-22V196a44.9,44.9,0,1,0,89.8,0V136.81Zm238.22,94.78a6.93,6.93,0,0,0-7-6.9,7,7,0,0,0-7.05,6.95,6.93,6.93,0,0,0,7,6.9A7,7,0,0,0,555.46,231.59Zm-1.45,0a5.51,5.51,0,0,1-5.59,5.54A5.53,5.53,0,1,1,554,231.6Zm-2.57-1.29c0-1.37-1-2.18-2.63-2.18h-3v6.61h1.47v-2.13h1.18l1.42,2.13h1.73L550,232.37A2.06,2.06,0,0,0,551.44,230.31Zm-1.49.09c0,.56-.4,1-1.15,1h-1.49v-1.94h1.46C549.5,229.42,550,229.75,550,230.4Zm-30.83-72.33c8.42-.25,17.27-6.71,17.27-19.34v-1.88H474.93c-18,0-30.41,13.67-30.41,28.91h0v43.88c0,15.23,12.42,28.9,30.41,28.9h61.46v-1.88c0-12.63-8.85-19.07-17.26-19.32v0H474.81a7.74,7.74,0,0,1-7.71-7.68c0-4.91,3.21-8.83,9.09-8.83h19.2c16.9-.12,26.64-10.47,29.71-22.3H478.9a13.63,13.63,0,0,0-11.8,6.59V165.76a7.74,7.74,0,0,1,7.71-7.69ZM217.59,179.68l-35.05-5.09c-6-1-9.09-3.92-9.09-8.83a7.74,7.74,0,0,1,7.71-7.69H238V136.85h-56.7c-18,0-30.41,13.67-30.41,28.91,0,13.33,8,27.13,26.32,30,.32,0,34.72,5,35.05,5.09,6,.94,9.1,3.92,9.1,8.83a7.75,7.75,0,0,1-7.73,7.68H172.09v0c-8.41.25-17.26,6.69-17.26,19.32v1.88H213.5c18,0,30.41-13.67,30.41-28.9C243.91,196.31,235.92,182.5,217.59,179.68Z"/><path class="cls-3" d="M274.68,17.11s-.15,8.07-.16,9c-4-1.33-32.87-10.66-59.95-11.61-23-.8-54.32-1.9-98.63,25.34l-1.31.82c-20.84,13-35.23,29-42.76,47.67-2.36,5.86-5.54,19.1-2.39,31.54a48.45,48.45,0,0,0,7.3,15.8,47.5,47.5,0,0,0,34.51,19.64c19.64,1.74,34.52-7.08,39.8-23.59,3.65-11.39,0-28.11-13.93-36.64-11.34-7-23.55-5.36-30.61-.7A20.45,20.45,0,0,0,97,111.7a19.07,19.07,0,0,0,18.38,18.87,22,22,0,0,0,7-1.2,10.6,10.6,0,0,0,2.66-1.18l.29-.18.18-.11-.07,0a6.26,6.26,0,0,0,2.81-5.16A7,7,0,0,0,128,121a6.26,6.26,0,0,0-7.18-4.41l-.43.08-.59.2-.84.28a15.8,15.8,0,0,1-3.35.48,6.21,6.21,0,0,1-5.3-6.19v0a7.2,7.2,0,0,1,1.11-3.69c1.36-2.14,5.1-4.24,10.16-3.8,6.62.57,11.41,4,14.57,10.38a17.84,17.84,0,0,1-2,18.68c-4.13,5.34-11.47,7.6-21.24,6.54A29.09,29.09,0,0,1,90.06,124c-4.56-8.62-4.81-18.85-.65-26.7,10-18.81,28.79-18.62,39.12-16.84,14.66,2.54,36.91,15.69,45.25,46.14h20.3c-2.51-7.77-4-30.24,18.89-30.24,25.05,0,28.22,17.64,35.32,30.24h21.5c-5.66-8.1-9.63-17.12-8.37-24.69,1.85-11.19,10.76-10.19,23.08-8.78,4,.45,8.6,1,13.34,1.09,13.22.08,25.22-2.35,34-6.19,5.68-2.49,9.31-4.13,11.59-6.19a6.71,6.71,0,0,0,1.67-3l.31-.78c.37-.95.85-3,1.14-4.08.58-2.25-1.41-1.06-1.41-1.06-3.84,2.32-13.49,6.72-22.52,6.9-11.18.23-33.71-11.25-36.06-12.47l-.23-.26-4.66-11c16.22,10.69,29.67,16.59,40,17.51,11.47,1,20.41-5.24,24.23-7.9.41-.28,1.93-1.3,1.57-2.53-1.5-5.21-6.64-22.65-10.93-27.08a18.05,18.05,0,0,0-4.28-3.72c-16.39-9.56-55.29-15.33-57.12-15.6A.33.33,0,0,0,274.68,17.11Zm26.71,32.17A16.65,16.65,0,1,1,317.45,66.5,16.56,16.56,0,0,1,301.39,49.28Z"/><path class="cls-3" d="M318.46,38.13a11.37,11.37,0,0,0-8.31,3.1,11.5,11.5,0,0,0-3.68,8.08A11.62,11.62,0,0,0,326,58.23a11.49,11.49,0,0,0,3.67-8.09A11.62,11.62,0,0,0,318.46,38.13Zm1.91,12.69c-2.86,0-5.15-1.54-5.15-3.43s2.29-3.45,5.15-3.45,5.15,1.55,5.15,3.45S323.21,50.82,320.37,50.82Z"/></g></svg>